<svg width="50" height="50" viewBox="0 0 50 50" fill="none" xmlns="http://www.w3.org/2000/svg">
<path d="M36.4585 24.4792C41.9237 24.4792 46.3543 28.9096 46.3543 34.375C46.3543 39.8404 41.9237 44.2708 36.4585 44.2708C32.0877 44.2708 28.3785 41.4371 27.0683 37.5067H22.9319C21.6216 41.4371 17.9127 44.2708 13.5418 44.2708C8.0765 44.2708 3.64598 39.8404 3.64598 34.375C3.64598 28.9096 8.0765 24.4792 13.5418 24.4792C18.6555 24.4792 22.8633 28.3579 23.3835 33.334H26.6168C27.1371 28.3579 31.3448 24.4792 36.4585 24.4792ZM13.5418 28.6458C10.3777 28.6458 7.81265 31.2108 7.81265 34.375C7.81265 37.5392 10.3777 40.1042 13.5418 40.1042C16.7059 40.1042 19.271 37.5392 19.271 34.375C19.271 31.2108 16.7059 28.6458 13.5418 28.6458ZM36.4585 28.6458C33.2943 28.6458 30.7293 31.2108 30.7293 34.375C30.7293 37.5392 33.2943 40.1042 36.4585 40.1042C39.6227 40.1042 42.1877 37.5392 42.1877 34.375C42.1877 31.2108 39.6227 28.6458 36.4585 28.6458ZM32.3166 6.25C34.8466 6.25 37.0773 7.90956 37.8041 10.3329L39.9004 17.3144C41.5514 17.5893 43.1675 17.9126 44.7481 18.2845C45.8681 18.5481 46.5625 19.6697 46.2989 20.7897C46.0354 21.9096 44.9137 22.604 43.7937 22.3404C38.0531 20.9898 31.7889 20.3125 25.0002 20.3125C18.2113 20.3125 11.9472 20.9898 6.20648 22.3404C5.08648 22.604 3.9649 21.9096 3.70135 20.7897C3.43783 19.6697 4.13215 18.5481 5.25215 18.2845C6.83223 17.9128 8.4475 17.5895 10.0979 17.3148L12.1961 10.3329C12.9231 7.90956 15.1536 6.25 17.6836 6.25H32.3166Z" fill="#7945F3"/>
</svg>
