<svg width="50" height="50" viewBox="0 0 50 50" fill="none" xmlns="http://www.w3.org/2000/svg">
<path d="M29.1663 4.1665H12.4997C11.3946 4.1665 10.3348 4.60549 9.5534 5.38689C8.77199 6.16829 8.33301 7.2281 8.33301 8.33317V41.6665C8.33301 43.979 10.1872 45.8332 12.4997 45.8332H37.4997C39.8122 45.8332 41.6663 43.979 41.6663 41.6665V16.6665L29.1663 4.1665ZM37.4997 41.6665H12.4997V8.33317H27.083V18.7498H37.4997V41.6665ZM20.833 23.9582C20.833 25.6873 19.4372 27.0832 17.708 27.0832C15.9788 27.0832 14.583 25.6873 14.583 23.9582C14.583 22.229 15.9788 20.8332 17.708 20.8332C19.4372 20.8332 20.833 22.229 20.833 23.9582ZM33.333 36.4582C33.333 38.1873 31.9372 39.5832 30.208 39.5832C28.4788 39.5832 27.083 38.1873 27.083 36.4582C27.083 34.729 28.4788 33.3332 30.208 33.3332C31.9372 33.3332 33.333 34.729 33.333 36.4582ZM33.333 23.6457L17.4372 39.5832L14.583 36.7707L30.5205 20.8332L33.333 23.6457Z" fill="#7945F3"/>
</svg>
