<svg width="50" height="50" viewBox="0 0 50 50" fill="none" xmlns="http://www.w3.org/2000/svg">
<path d="M1.56231 39.0627H20.3124C21.1761 39.0627 21.8752 38.5375 21.8752 37.8908V35.5466C21.8752 34.8999 21.1761 34.3752 20.3124 34.3752H1.56231C0.698768 34.3752 0 34.8998 0 35.5466V37.8908C0 38.5375 0.698768 39.0627 1.56231 39.0627ZM1.56231 45.3129H20.3124C21.1761 45.3129 21.8752 44.7878 21.8752 44.1409V41.7968C21.8752 41.15 21.1761 40.6252 20.3124 40.6252H1.56231C0.698768 40.6252 0 41.15 0 41.7968V44.1409C0 44.7878 0.698768 45.3129 1.56231 45.3129ZM1.56231 32.812H20.3124C21.1761 32.812 21.8752 32.2874 21.8752 31.6406V29.2975C21.8752 28.6501 21.1761 28.1249 20.3124 28.1249H1.56231C0.698768 28.1248 0 28.65 0 29.2974V31.6405C0 32.2874 0.698768 32.812 1.56231 32.812ZM24.9315 32.1901C24.9557 32.0069 25.0001 31.8299 25.0001 31.6405V29.2974C25.0001 26.886 22.9414 24.9999 20.3124 24.9999H14.0624C14.0624 20.6848 17.56 17.1877 21.8752 17.1877C26.1904 17.1877 29.6877 20.6848 29.6877 24.9999C29.6878 28.2288 27.7269 30.9994 24.9315 32.1901ZM0 10.9375H43.7502V39.0627H24.8139C24.9253 38.6905 25.0001 38.2995 25.0001 37.8908V35.9377H34.3753C34.3753 32.486 37.1738 29.6875 40.625 29.6875V20.3126C37.1738 20.3126 34.3753 17.514 34.3753 14.0626H9.3751C9.3751 17.5141 6.57683 20.3126 3.12514 20.3126V24.9999H1.56231C1.00843 24.9999 0.489787 25.1007 0 25.2532V10.9375ZM50 4.6875V35.9377H46.8754V7.81254H3.12514V4.6875H50Z" fill="#7945F3"/>
</svg>
