<svg width="50" height="50" viewBox="0 0 50 50" fill="none" xmlns="http://www.w3.org/2000/svg">
<path d="M18.7314 12.4675L33.1096 4.1665L37.9137 12.4884L18.7314 12.4675V12.4675Z" stroke="#7945F3" stroke-width="4" stroke-linecap="round" stroke-linejoin="round"/>
<path d="M4.16699 14.5833C4.16699 14.0308 4.38649 13.5009 4.77719 13.1102C5.16789 12.7195 5.69779 12.5 6.25033 12.5H43.7503C44.3029 12.5 44.8328 12.7195 45.2235 13.1102C45.6142 13.5009 45.8337 14.0308 45.8337 14.5833V43.75C45.8337 44.3025 45.6142 44.8324 45.2235 45.2231C44.8328 45.6138 44.3029 45.8333 43.7503 45.8333H6.25033C5.69779 45.8333 5.16789 45.6138 4.77719 45.2231C4.38649 44.8324 4.16699 44.3025 4.16699 43.75V14.5833Z" stroke="#7945F3" stroke-width="4" stroke-linejoin="round"/>
<path d="M36.7188 34.3747H45.8333V23.958H36.7188C33.6979 23.958 31.25 26.2903 31.25 29.1663C31.25 32.0424 33.6979 34.3747 36.7188 34.3747Z" stroke="#7945F3" stroke-width="4" stroke-linejoin="round"/>
<path d="M45.834 17.1875V42.1875" stroke="#7945F3" stroke-width="4" stroke-linecap="round"/>
</svg>
