<svg width="50" height="50" viewBox="0 0 50 50" fill="none" xmlns="http://www.w3.org/2000/svg">
<path d="M45.683 24.1811C45.2622 23.1644 44.3601 22.9207 43.7497 22.8623V16.6665C43.7497 14.3686 41.8809 12.4998 39.583 12.4998H27.083V9.604C27.7184 9.03317 28.1247 8.21234 28.1247 7.2915C28.1247 6.4627 27.7954 5.66785 27.2094 5.0818C26.6233 4.49574 25.8285 4.1665 24.9997 4.1665C24.1709 4.1665 23.376 4.49574 22.79 5.0818C22.2039 5.66785 21.8747 6.4627 21.8747 7.2915C21.8747 8.21234 22.2809 9.03317 22.9163 9.604V12.4998H10.4163C8.11842 12.4998 6.24967 14.3686 6.24967 16.6665V22.9103L6.07884 22.9228C5.55378 22.9607 5.06254 23.1959 4.70388 23.5813C4.34521 23.9666 4.14572 24.4734 4.14551 24.9998V29.1665C4.14551 29.719 4.365 30.2489 4.7557 30.6396C5.1464 31.0303 5.67631 31.2498 6.22884 31.2498H6.24967V41.6665C6.24967 43.9644 8.11842 45.8332 10.4163 45.8332H39.583C41.8809 45.8332 43.7497 43.9644 43.7497 41.6665V31.2498C44.3022 31.2498 44.8321 31.0303 45.2228 30.6396C45.6135 30.2489 45.833 29.719 45.833 29.1665V25.129C45.857 24.8057 45.8057 24.4812 45.683 24.1811ZM10.4163 41.6665V16.6665H39.583L39.5851 24.9915L39.583 24.9998V29.1665L39.5851 29.1769L39.5872 41.6665H10.4163Z" fill="#7945F3"/>
<path d="M17.708 29.1668C19.4339 29.1668 20.833 27.3013 20.833 25.0002C20.833 22.699 19.4339 20.8335 17.708 20.8335C15.9821 20.8335 14.583 22.699 14.583 25.0002C14.583 27.3013 15.9821 29.1668 17.708 29.1668Z" fill="#7945F3"/>
<path d="M32.292 29.1668C34.0179 29.1668 35.417 27.3013 35.417 25.0002C35.417 22.699 34.0179 20.8335 32.292 20.8335C30.5661 20.8335 29.167 22.699 29.167 25.0002C29.167 27.3013 30.5661 29.1668 32.292 29.1668Z" fill="#7945F3"/>
<path d="M16.667 33.3335H33.3337V37.5002H16.667V33.3335Z" fill="#7945F3"/>
</svg>
