<svg width="18" height="10" viewBox="0 0 18 10" fill="none" xmlns="http://www.w3.org/2000/svg">
<path d="M17.635 1.62413C17.8241 1.44338 17.7678 1.19044 17.5093 1.05919C17.2508 0.927931 16.8879 0.968052 16.6987 1.1488L17.635 1.62413ZM9.50979 8.70475L9.04727 8.94993L9.51768 9.38229L9.97792 8.94241L9.50979 8.70475ZM2.01016 1.14129C1.81687 0.963627 1.4531 0.929372 1.19766 1.06478C0.942223 1.20018 0.891845 1.45398 1.08514 1.63164L2.01016 1.14129ZM16.6987 1.1488L9.04165 8.46709L9.97792 8.94241L17.635 1.62413L16.6987 1.1488ZM9.9723 8.45958L2.01016 1.14129L1.08514 1.63164L9.04727 8.94993L9.9723 8.45958Z" fill="#2C2C2C"/>
</svg>
