<svg width="22" height="22" viewBox="0 0 22 22" fill="none" xmlns="http://www.w3.org/2000/svg">
<path d="M19.8264 0.929964L7.30767 0.904297C6.10867 0.904297 5.13333 1.87963 5.13333 3.07863V4.95743L2.17433 4.96366C0.975333 4.96366 0 5.939 0 7.138V14.8897C0 16.0887 0.975333 17.0637 2.17397 17.0637H4.4V20.7303C4.4 20.8818 4.49313 21.0178 4.6343 21.0724C4.67757 21.0889 4.7223 21.097 4.76667 21.097C4.86787 21.097 4.96723 21.0548 5.038 20.9771L8.59613 17.0629L14.6923 17.038C15.8913 17.038 16.8667 16.0627 16.8667 14.864V14.8222L18.7953 16.9438C18.8661 17.0215 18.9651 17.0637 19.0667 17.0637C19.111 17.0637 19.1558 17.0556 19.199 17.0391C19.3402 16.9841 19.4333 16.8481 19.4333 16.6966V13.03H19.8257C21.0247 13.03 22 12.0546 22 10.856V3.1043C22 1.90566 21.025 0.93033 19.8264 0.929964ZM16.1333 14.8637C16.1333 15.6582 15.4869 16.3043 14.6909 16.3043L8.43187 16.33C8.32883 16.3303 8.2313 16.374 8.162 16.4499L5.13333 19.7818V16.6966C5.13333 16.4942 4.96907 16.33 4.76667 16.33H2.17397C1.37977 16.33 0.733333 15.6835 0.733333 14.8893V7.13763C0.733333 6.34306 1.37977 5.69663 2.17507 5.69663L5.5 5.68966H5.50073L14.6197 5.67096H14.6923C15.1888 5.67096 15.6277 5.9236 15.8869 6.30676C16.0424 6.53666 16.1333 6.81386 16.1333 7.11196V13.8737V14.8637ZM21.2667 10.856C21.2667 11.6506 20.6202 12.2966 19.8257 12.2966H19.0667C18.8643 12.2966 18.7 12.4609 18.7 12.6633V15.7484L16.8667 13.7318V7.11196C16.8667 6.962 16.8513 6.8157 16.8223 6.67453C16.8076 6.60376 16.7897 6.53446 16.7688 6.46626C16.493 5.58186 15.6666 4.938 14.692 4.938H14.6538L5.86667 4.9556V3.07826C5.86667 2.2837 6.5131 1.63726 7.30693 1.63726L19.8253 1.66293H19.8257C20.6202 1.66293 21.2667 2.30936 21.2667 3.10393V10.856Z" fill="white"/>
</svg>
