<svg width="145" height="145" viewBox="0 0 145 145" fill="none" xmlns="http://www.w3.org/2000/svg">
<g clip-path="url(#clip0_673_3414)">
<path d="M43.3761 17.415C66.5915 -5.80498 104.369 -5.80498 127.587 17.415C150.804 40.6314 150.804 78.4075 127.587 101.622C105.166 124.045 69.1695 124.808 45.8169 103.926L41.0961 108.646C42.2722 111.657 41.6563 115.202 39.2271 117.633L14.3164 142.544C11.0403 145.82 5.72952 145.818 2.45691 142.544C-0.819199 139.269 -0.819199 133.959 2.45691 130.683L27.3654 105.777C29.7967 103.346 33.3445 102.73 36.3521 103.906L41.0729 99.1835C20.1874 75.8291 20.954 39.8336 43.3761 17.415ZM120.47 94.5101C139.764 75.2167 139.764 43.8243 120.47 24.5309C101.177 5.23568 69.7837 5.23744 50.4903 24.5309C31.1968 43.8243 31.1968 75.2181 50.4903 94.5115C69.7837 113.805 101.177 113.803 120.47 94.5101Z" fill="black"/>
<path d="M108.714 35.8537C100.287 27.4276 90.4933 21.3091 80.1935 17.4957C91.8618 16.8291 104.359 21.3699 113.948 30.9574C123.67 40.6795 128.198 53.3926 127.372 65.2033C123.586 54.6003 117.368 44.508 108.714 35.8537Z" fill="black"/>
</g>
<defs>
<clipPath id="clip0_673_3414">
<rect width="145" height="145" fill="white" transform="matrix(-1 0 0 1 145 0)"/>
</clipPath>
</defs>
</svg>
