<svg width="24" height="24" viewBox="0 0 24 24" fill="none" xmlns="http://www.w3.org/2000/svg">
<path d="M0.187109 20.648C2.79336 20.8823 5.1418 20.2261 7.2793 18.623C5.04336 18.4261 3.54805 17.3105 2.71367 15.2199C3.44492 15.3089 4.1293 15.3324 4.85586 15.1355C2.44649 14.3855 1.16211 12.8105 0.988672 10.2699C1.71055 10.6074 2.39024 10.8511 3.1918 10.8605C1.76211 9.78704 1.03086 8.39485 1.05898 6.64173C1.07305 5.83548 1.28867 5.07611 1.71524 4.35892C4.36367 7.45736 7.68711 9.17298 11.7793 9.45892C11.7559 9.28079 11.7418 9.14017 11.7231 8.99485C11.3856 6.39798 13.0731 4.03548 15.6512 3.54329C17.2684 3.23392 18.6981 3.66048 19.9074 4.77611C20.0949 4.94486 20.2543 4.98236 20.4887 4.92142C21.4309 4.68236 22.3262 4.33548 23.1934 3.86673C22.8606 4.96361 22.1762 5.78861 21.2481 6.48236C21.459 6.44486 21.6746 6.41673 21.8856 6.37454C22.1059 6.32767 22.3262 6.27611 22.5465 6.21517C22.7574 6.15892 22.9637 6.09329 23.1699 6.02298C23.3809 5.95267 23.5918 5.87298 23.8402 5.83079C23.7184 5.99954 23.6012 6.17767 23.4699 6.34173C22.9262 7.03079 22.2981 7.63548 21.609 8.17454C21.5387 8.23079 21.4777 8.35267 21.4824 8.43704C21.5199 10.1011 21.2856 11.723 20.7465 13.298C19.6871 16.4011 17.8402 18.9136 15.0699 20.7089C13.7012 21.5948 12.2059 22.1761 10.6074 22.5136C9.02305 22.8464 7.4293 22.9073 5.83086 22.7198C4.22774 22.5323 2.7043 22.0589 1.26992 21.3183C0.890235 21.1261 0.52461 20.9105 0.154297 20.7042C0.168359 20.6855 0.177734 20.6667 0.187109 20.648Z" fill="white"/>
</svg>
